<?xml version="1.0" encoding="UTF-8" standalone="no"?>
<!-- Created with Inkscape (http://www.inkscape.org/) -->

<svg
   xmlns:dc="http://purl.org/dc/elements/1.1/"
   xmlns:cc="http://creativecommons.org/ns#"
   xmlns:rdf="http://www.w3.org/1999/02/22-rdf-syntax-ns#"
   xmlns:svg="http://www.w3.org/2000/svg"
   xmlns="http://www.w3.org/2000/svg"
   xmlns:sodipodi="http://sodipodi.sourceforge.net/DTD/sodipodi-0.dtd"
   xmlns:inkscape="http://www.inkscape.org/namespaces/inkscape"
   width="198.15782mm"
   height="36.355476mm"
   viewBox="0 0 702.13401 128.81862"
   id="svg2"
   version="1.1"
   inkscape:version="0.91 r13725"
   sodipodi:docname="tech.svg">
  <defs
     id="defs4" />
  <sodipodi:namedview
     id="base"
     pagecolor="#ffffff"
     bordercolor="#666666"
     borderopacity="1.0"
     inkscape:pageopacity="0.0"
     inkscape:pageshadow="2"
     inkscape:zoom="1.4"
     inkscape:cx="421.80313"
     inkscape:cy="-39.168723"
     inkscape:document-units="px"
     inkscape:current-layer="layer1"
     showgrid="false"
     inkscape:window-width="1920"
     inkscape:window-height="1029"
     inkscape:window-x="0"
     inkscape:window-y="0"
     inkscape:window-maximized="1"
     fit-margin-top="0"
     fit-margin-left="0"
     fit-margin-right="0"
     fit-margin-bottom="0" />
  <metadata
     id="metadata7">
    <rdf:RDF>
      <cc:Work
         rdf:about="">
        <dc:format>image/svg+xml</dc:format>
        <dc:type
           rdf:resource="http://purl.org/dc/dcmitype/StillImage" />
        <dc:title></dc:title>
      </cc:Work>
    </rdf:RDF>
  </metadata>
  <g
     inkscape:label="Layer 1"
     inkscape:groupmode="layer"
     id="layer1"
     transform="translate(-33.410144,-36.188418)">
    <g
       id="g3416"
       transform="translate(28.857144,36.933634)">
      <polygon
         id="polygon3406"
         points="63.671,64 64.248,64 76.144,64 63.769,38.123 52.864,64 "
         style="fill:#c4473a" />
      <path
         id="path3408"
         d="M 63.81,1.026 4.553,21.88 13.916,99.517 63.873,126.974 114.087,99.146 123.447,21.511 63.81,1.026 Z M 48.044,75 40.779,93.176 27.198,93.232 63.806,12.153 63.736,12 l -0.064,0 0.001,-0.133 0.063,0.133 0.1,0 0.041,0 L 64,11.726 64,12 63.876,12 63.807,12.153 101.996,93.57 88.922,93.283 80.88,74.703 63.707,74.785"
         inkscape:connector-curvature="0"
         style="fill:#c4473a" />
    </g>
    <g
       id="g3481"
       transform="translate(160.78522,32.647418)">
      <path
         id="path3471"
         d="M 112.678,30.334 68.535,4.729 c -2.781,-1.584 -6.424,-1.584 -9.227,0 L 14.82,30.334 C 11.951,31.985 10,35.088 10,38.407 l 0,51.142 c 0,3.319 1.992,6.423 4.862,8.083 l 11.729,6.688 c 5.627,2.772 7.186,2.772 9.746,2.772 8.334,0 12.662,-5.039 12.662,-13.828 l 0,-50.49 C 49,42.061 49.445,41 48.744,41 l -5.622,0 C 42.41,41 41,42.061 41,42.773 l 0,50.49 c 0,3.896 -3.616,7.773 -10.202,4.48 L 18.676,90.73 C 18.254,90.5 18,90.037 18,89.549 l 0,-51.142 c 0,-0.482 0.463,-0.966 0.891,-1.213 L 63.269,11.633 c 0.415,-0.235 1.002,-0.235 1.415,0 l 43.963,25.555 c 0.421,0.253 0.354,0.722 0.354,1.219 l 0,51.142 c 0,0.488 0.092,0.963 -0.323,1.198 l -44.133,25.576 c -0.378,0.227 -0.87,0.227 -1.285,0 l -11.317,-6.749 c -0.341,-0.198 -0.752,-0.269 -1.08,-0.086 -3.145,1.783 -3.729,2.02 -6.679,3.043 -0.727,0.253 -1.799,0.692 0.408,1.929 l 14.798,8.754 c 1.416,0.82 3.027,1.246 4.647,1.246 1.642,0 3.249,-0.426 4.666,-1.246 l 43.976,-25.582 c 2.871,-1.672 4.322,-4.764 4.322,-8.083 l 0,-51.142 C 117,35.088 115.549,31.993 112.678,30.334 Z"
         inkscape:connector-curvature="0"
         style="fill:#83cd29" />
      <path
         id="path3473"
         d="M 77.727,81.445 C 66,81.445 63.418,78.21 62.557,72.379 62.455,71.751 61.923,71 61.283,71 l -5.73,0 c -0.709,0 -1.28,0.86 -1.28,1.566 0,7.466 4.06,16.512 23.454,16.512 14.038,0 22.088,-5.455 22.088,-15.109 0,-9.572 -6.467,-12.084 -20.082,-13.886 -13.762,-1.819 -15.16,-2.738 -15.16,-5.962 0,-2.658 1.184,-6.203 11.374,-6.203 9.104,0 12.46,1.954 13.841,8.091 0.119,0.577 0.646,0.991 1.241,0.991 l 5.754,0 c 0.354,0 0.691,-0.143 0.939,-0.396 0.241,-0.272 0.367,-0.613 0.336,-0.979 -0.893,-10.569 -7.913,-15.494 -22.112,-15.494 -12.632,0 -20.166,5.334 -20.166,14.275 0,9.698 7.497,12.378 19.622,13.577 14.505,1.422 15.633,3.542 15.633,6.395 0,4.956 -3.978,7.067 -13.308,7.067 z"
         inkscape:connector-curvature="0"
         style="fill:#83cd29" />
    </g>
    <path
       id="path3534"
       d="m 299.31771,40.1152 10.005,112.093 44.896,12.401 45.02,-12.387 10.015,-112.107 -109.936,0 z m 89.126,26.539 -0.627,7.172 -0.276,3.289 -0.044,0 -33.151,0 -0.048,0 -19.422,0 1.257,14 18.165,0 0.048,0 28.234,0 3.709,0 -0.336,3.471 -3.233,36.119 -0.238,2.27 -28.196,7.749 0,0.002 -0.034,0.018 -28.177,-7.423 -1.913,-21.206 6.367,0 7.448,0 0.979,10.919 15.287,4.081 0.043,0 0,-0.546 15.355,-3.875 1.604,-17.579 -16.899,0 -0.048,0 -30.751,0 -3.383,-38.117 -0.329,-3.883 34.463,0 0.048,0 34.428,0 -0.33,3.539 z"
       inkscape:connector-curvature="0"
       style="fill:#e44d26" />
    <path
       id="path3592"
       d="m 418.45397,39.544043 10.055,112.882997 45.118,12.58 45.244,-12.626 10.063,-112.836997 -110.48,0 z m 89.591,25.862 -3.347,37.604997 0,0 0.01,0.203 -0.014,0.467 0,-0.004 -2.378,26.294 -0.262,2.336 -28.36,7.844 0,0.001 -0.022,0.019 -28.311,-7.888 -1.917,-21.739 6.399,0 7.484,0 0.985,11.054 15.386,4.17 -0.004,0.008 0,-0.002 15.443,-4.229 1.632,-18.001 -17.075,0 0,0 -15.164,0 -0.044,0 -0.277,-3.043 -0.631,-7.128997 -0.331,-3.828 16.447,0 0,0 18.302,0 1.264,-14 -19.518,0 -0.048,0 -33.316,0 -0.044,0 -0.277,-3.041 -0.63,-7.131 -0.332,-3.828 34.599,0 0.048,0 34.634,0 -0.331,3.862 z"
       inkscape:connector-curvature="0"
       style="fill:#1572b6" />
    <g
       id="g3666"
       transform="translate(512.29253,36.292948)">
      <path
         id="path3654"
         d="m 36.965,35.459 c 0.877,9.232 1.747,18.412 2.637,27.798 1.451,-2.495 2.501,-4.888 4.085,-6.848 1.475,-1.826 3.334,-3.511 5.357,-4.678 2.641,-1.524 6.104,-0.089 6.96,2.614 0.23,0.725 -0.319,1.697 -0.511,2.556 -0.646,-0.341 -1.479,-0.529 -1.901,-1.051 -1.793,-2.217 -2.873,-2.479 -4.856,-0.563 -3.699,3.576 -5.779,8.056 -6.573,13.091 -0.153,0.974 0.456,2.067 0.713,3.105 1.011,-0.348 2.185,-0.476 3.002,-1.084 2.656,-1.977 4.302,-4.666 5.21,-7.88 0.197,-0.696 1.265,-1.145 1.933,-1.708 0.32,0.658 1.05,1.433 0.897,1.954 -1.407,4.84 -2.934,9.649 -4.536,14.429 -0.162,0.484 -1.051,0.725 -1.604,1.079 -0.223,-0.636 -0.692,-1.302 -0.617,-1.901 0.168,-1.358 0.605,-2.683 0.91,-3.927 -2.39,1.1 -4.628,2.131 -7.24,3.333 0.405,4.622 0.825,9.807 1.323,14.985 0.382,3.954 1.029,4.978 4.923,5.728 4.544,0.875 9.173,1.434 13.792,1.774 6.825,0.503 13.59,-0.119 20.23,-1.904 2.472,-0.664 3.458,-2.29 3.635,-4.717 0.162,-2.235 0.524,-4.456 0.775,-6.685 0.493,-4.391 0.972,-8.783 1.476,-13.358 -1.667,1.056 -2.978,2.238 -4.511,2.739 -1.116,0.365 -2.524,-0.169 -3.803,-0.303 0.245,-1.174 0.23,-2.497 0.796,-3.487 0.922,-1.618 2.224,-3.021 3.364,-4.515 -0.163,-0.197 -0.326,-0.394 -0.491,-0.591 -0.817,0.483 -1.832,0.8 -2.413,1.485 -1.182,1.394 -2.339,2.886 -3.13,4.52 -1.324,2.735 -2.333,5.622 -3.518,8.426 -0.515,1.216 -0.959,3.076 -2.684,2.366 -1.845,-0.761 -0.547,-2.386 -0.114,-3.542 0.689,-1.844 1.599,-3.606 2.215,-4.962 -1.746,0.208 -3.516,0.459 -5.294,0.614 -0.752,0.064 -1.646,-0.348 -2.261,-0.07 -2.045,0.924 -3.341,0.553 -3.766,-1.711 -0.947,0.615 -1.749,1.448 -2.694,1.672 -1.147,0.273 -2.703,0.452 -3.543,-0.121 -0.673,-0.459 -0.918,-2.184 -0.688,-3.196 0.457,-2.012 1.311,-3.946 2.122,-5.859 0.502,-1.185 1.007,-3.077 2.701,-2.253 1.674,0.813 0.154,2.185 -0.232,3.286 -0.599,1.702 -1.209,3.401 -1.813,5.101 0.319,0.193 0.64,0.386 0.96,0.58 0.914,-0.794 2.053,-1.441 2.693,-2.415 1.048,-1.592 1.681,-3.452 2.673,-5.086 0.411,-0.677 1.296,-1.065 1.967,-1.584 0.136,0.862 0.462,1.748 0.354,2.58 -0.107,0.841 -0.698,1.61 -0.981,2.442 -0.425,1.246 -0.768,2.52 -1.2,3.969 2.043,0.078 2.918,-0.782 3.495,-2.299 1.826,-4.793 3.672,-9.581 5.679,-14.3 0.343,-0.808 1.509,-1.264 2.296,-1.884 0.091,0.974 0.525,2.078 0.216,2.899 -1.645,4.349 -3.492,8.62 -5.228,12.935 -0.293,0.727 -0.387,1.534 -0.572,2.304 3.059,-1.375 5.612,-2.895 6.544,-6.146 0.228,-0.79 1.162,-1.377 1.771,-2.058 0.478,0.506 0.955,1.011 1.416,1.5 0.43,-0.362 0.824,-0.774 1.291,-1.075 1.47,-0.947 3.053,-1.782 4.603,-0.315 1.604,1.517 0.39,2.995 -0.448,4.307 -0.912,1.431 -2.029,2.73 -3.057,4.086 2.312,-1.49 5.469,-2.158 5.889,-5.378 1.024,-7.865 1.924,-15.746 2.837,-23.625 0.271,-2.332 0.416,-4.679 0.627,-7.109 -18.21,4.409 -36.029,4.436 -54.088,-0.069 z"
         inkscape:connector-curvature="0"
         style="clip-rule:evenodd;fill:#eb4a4b;fill-rule:evenodd" />
      <path
         id="path3656"
         d="m 44.781,96.828 c 0.877,2.317 2.209,4.593 2.558,7.011 0.737,5.147 0.924,10.372 1.446,15.554 0.076,0.755 0.565,1.792 1.175,2.124 8.98,4.88 18.047,5.726 27.209,0.389 1.367,-0.796 1.62,-1.847 1.797,-3.325 0.857,-7.181 -1.051,-14.798 3.54,-21.56 -12.856,3.189 -25.403,3.288 -37.725,-0.193 z"
         inkscape:connector-curvature="0"
         style="clip-rule:evenodd;fill:#eb4a4b;fill-rule:evenodd" />
      <path
         id="path3658"
         d="m 75.772,36.748 c 4.362,-0.421 8.671,-1.445 12.985,-2.291 0.813,-0.159 1.535,-0.778 2.299,-1.185 -1.007,-0.885 -1.878,-1.311 -2.788,-1.418 -4.53,-0.535 -9.076,-0.947 -13.603,-1.508 -0.684,-0.085 -1.905,-0.929 -1.854,-1.083 1.321,-3.98 1.256,-8.485 4.254,-11.839 3.789,-4.24 7.617,-8.443 11.416,-12.648 -2.826,-3.04 -2.864,-3.044 -5.425,-0.383 -1.448,1.504 -2.771,3.15 -4.342,4.512 -5.813,5.038 -9.896,11.005 -10.692,18.872 -0.183,1.805 -1.174,2.457 -3.069,2.485 -6.256,0.091 -12.519,0.263 -18.761,0.674 -3.093,0.203 -6.148,0.997 -9.221,1.523 -0.01,0.383 -0.02,0.766 -0.028,1.149 1.923,0.593 3.809,1.372 5.773,1.749 10.944,2.098 21.991,2.458 33.056,1.391 z M 72.276,34 c -2.477,2 -4.524,2 -6.501,0 2.091,0 4.171,0 6.501,0 z"
         inkscape:connector-curvature="0"
         style="clip-rule:evenodd;fill:#eb4a4b;fill-rule:evenodd" />
    </g>
    <path
       id="path3720"
       d="m 735.34118,99.025459 c -0.559,-2.396 -1.734,-4.17 -3.956,-5.316 -4.161,-2.147 -8.577,-3.302 -13.091,-4.333 -9.566,-2.186 -19.235,-3.564 -28.973,-4.706 -1.127,-0.132 -2.237,-0.282 -3.363,-0.424 0.376,-3.143 1.495,-4.192 5.271,-4.975 0.391,0.905 0.749,1.851 1.214,2.739 0.172,0.328 0.603,0.738 0.919,0.743 5.632,0.079 10.951,-0.888 15.265,-4.908 3.371,-3.144 4.867,-7.224 5.693,-11.619 0.3,-1.598 0.588,-3.199 0.825,-4.808 0.739,-5.002 3.353,-9.002 6.685,-12.626 0.163,-0.177 0.308,-0.369 0.549,-0.661 -2.649,-0.822 -5.265,-0.913 -7.849,-0.44 -9.892,1.81 -17.349,7.015 -21.982,16.055 -0.034,0.066 -0.105,0.114 -0.16,0.17 -1.686,-0.426 -3.384,-0.81 -5.046,-1.311 -0.304,-0.092 -0.543,-0.636 -0.678,-1.018 -2.718,-7.715 -7.416,-13.725 -15.075,-16.983 -2.281,-0.972 -4.83,-0.826 -7.254,-1.465 -0.132,-0.035 -0.241,0.25 -0.36,0.25 -2.444,0 -4.888,0 -7.332,0 -1.609,0 -3.225,0.096 -4.826,0.432 -19.176,4.013 -34.168,18.824 -37.677,38.182 -3.749,20.675001 1.924,38.738001 15.541,54.548001 2.047,2.377 4.519,4.271 7.37,5.685 5.264,2.608 10.975,0.695 13.666,-4.549 0.055,-0.105 0.123,-0.22 0.225,-0.389 1.151,3.009 2.388,5.919 3.38,8.917 0.966,2.917 4.453,4.246 6.582,4.105 0.401,-0.026 0.895,0.338 1.182,0.12 1.907,-1.445 3.41,0.949 5.067,0.949 0.896,0 1.792,0 2.688,0 1.898,-1 3.701,-1.653 4.943,-3.361 0.152,-0.211 0.827,-0.269 1.252,-0.225 2.432,0.253 4.688,-0.314 6.73,-1.679 1.708,-1.143 2.779,-2.746 2.999,-4.811 2.161,-0.632 3.501,-2.286 3.573,-4.827 0.04,-1.377 -0.084,-2.93 -0.674,-4.135 -1.797,-3.678 -3.856,-7.232 -5.813,-10.832 -0.054,-0.115 -0.106,-0.232 -0.16,-0.348 0.128,0.051 0.255,0.099 0.383,0.15 2.876,1.401 5.9,2.024 9.1,1.758 2.039,-0.169 3.262,-0.823 4.288,-2.391 2.525,1.783 5.364,2.628 8.458,2.409 3.079,-0.217 5.973,-0.876 7.631,-3.946 2.188,0 4.432,0.203 6.615,-0.069 1.522,-0.189 3.054,-0.866 4.421,-1.619 2.189,-1.205 3.674,-2.974 3.206,-5.775 2.242,-0.194 4.304,-0.748 6.045,-2.146 1.409,-1.132 2.035,-2.607 2.513,-4.346 0.111,-0.407 0.193,-0.793 0.193,-1.188 0,-1.14 0,-2.28 0,-3.421 0,-0.521 -0.08,-1.034001 -0.203,-1.562001 z m -75.322,-22.892 c -3.582,-0.006 -6.441,-2.887 -6.408,-6.457 0.032,-3.575 2.942,-6.479 6.463,-6.452 3.576,0.029 6.392,2.895 6.389,6.502 -0.005,3.602 -2.831,6.414 -6.444,6.407 z m 19.638,5.175 c -0.817,-1.956 -1.452,-4.001 -1.161,-6.234 -0.151,-3.359 1.012,-6.303 2.974,-8.939 0.256,-0.342 1.092,-0.392 1.643,-0.353 6.281,0.439 11.744,2.982 16.758,6.634 1.041,0.759 2.032,1.588 2.924,2.563 -1.964,-0.421 -3.92,-0.882 -5.893,-1.255 -2.969,-0.562 -5.908,-0.449 -8.703,0.799 -3.019,1.348 -6.17,1.301 -9.355,1.08 1.735,1.558 3.833,1.472 5.901,1.16 1.749,-0.262 3.461,-0.77 5.265,-1.187 0.041,0.427 0.076,0.802 0.097,1.022 -3.524,1.588 -6.948,3.132 -10.45,4.71 z"
       inkscape:connector-curvature="0"
       style="clip-rule:evenodd;fill:#ef5734;fill-rule:evenodd" />
  </g>
</svg>
